<svg height="496pt" viewBox="0 0 496 496" width="496pt" xmlns="http://www.w3.org/2000/svg"><g fill="#f0bc5e"><path d="m104 192c0 48.601562 39.398438 88 88 88v-176c-48.601562 0-88 39.398438-88 88zm0 0"/><path d="m464 272h-176v-80h176zm0 0"/><path d="m432 136h-128v-32h128zm0 0"/></g><path d="m472 160h-8v-96h-384v-64h-40c-22.054688 0-40 17.945312-40 40v304c0 22.054688 17.945312 40 40 40h216v88c0 13.230469 10.769531 24 24 24h192c13.230469 0 24-10.769531 24-24v-288c0-13.230469-10.769531-24-24-24zm-456-120c0-13.230469 10.769531-24 24-24h24v288h-24c-9 0-17.3125 2.992188-24 8.015625zm24 328c-13.230469 0-24-10.769531-24-24s10.769531-24 24-24h40v-240h368v80h-165.519531c-13.433594-37.976562-49.726563-64-90.480469-64-52.9375 0-96 43.0625-96 96s43.0625 96 96 96c23.839844 0 46.558594-8.953125 64-24.550781v104.550781zm216-184h-56v-71.550781c30.152344 3.046875 56.28125 23.070312 66.929688 51.472656-6.570313 4.285156-10.929688 11.671875-10.929688 20.078125zm-72 87.59375c-40.367188-4.027344-72-38.1875-72-79.59375s31.632812-75.566406 72-79.59375zm16-71.59375h56v39.824219c-13.472656 17.992187-33.824219 29.449219-56 31.6875zm280 272c0 4.40625-3.59375 8-8 8h-192c-4.40625 0-8-3.59375-8-8v-288c0-4.40625 3.59375-8 8-8h192c4.40625 0 8 3.59375 8 8zm0 0"/><path d="m416 464h48v-48h-48zm16-32h16v16h-16zm0 0"/><path d="m352 464h48v-48h-48zm16-32h16v16h-16zm0 0"/><path d="m288 464h48v-48h-48zm16-32h16v16h-16zm0 0"/><path d="m416 400h48v-48h-48zm16-32h16v16h-16zm0 0"/><path d="m352 400h48v-48h-48zm16-32h16v16h-16zm0 0"/><path d="m288 400h48v-48h-48zm16-32h16v16h-16zm0 0"/><path d="m416 336h48v-48h-48zm16-32h16v16h-16zm0 0"/><path d="m352 336h48v-48h-48zm16-32h16v16h-16zm0 0"/><path d="m288 336h48v-48h-48zm16-32h16v16h-16zm0 0"/><path d="m304 96h128v16h-128zm0 0"/><path d="m304 128h128v16h-128zm0 0"/><path d="m304 240h144v16h-144zm0 0"/></svg>